<svg id="svg" version="1.1" xmlns="http://www.w3.org/2000/svg" xmlns:xlink="http://www.w3.org/1999/xlink" width="400" height="93.1726907630522" viewBox="0, 0, 400,93.1726907630522"><g id="svgg"><path id="path0" d="M226.208 45.792 L 226.250 70.250 226.941 70.300 C 227.461 70.338,227.653 70.431,227.717 70.675 C 227.795 70.973,227.959 71.000,229.716 71.000 C 231.619 71.000,231.631 71.002,231.735 71.417 L 231.840 71.833 239.735 71.833 L 247.631 71.833 247.735 71.417 C 247.833 71.025,247.906 71.000,248.935 71.000 C 249.872 71.000,250.043 70.954,250.114 70.683 C 250.174 70.455,250.408 70.335,250.951 70.254 C 251.488 70.173,251.728 70.051,251.786 69.830 C 251.831 69.659,252.028 69.496,252.225 69.468 C 252.446 69.436,252.603 69.277,252.635 69.051 C 252.678 68.751,252.813 68.676,253.385 68.634 C 253.957 68.592,254.093 68.517,254.135 68.219 C 254.168 67.991,254.325 67.834,254.552 67.802 C 254.779 67.770,254.936 67.612,254.969 67.385 C 255.001 67.158,255.158 67.001,255.385 66.969 C 255.684 66.926,255.759 66.791,255.801 66.219 C 255.842 65.646,255.917 65.511,256.217 65.469 C 256.443 65.437,256.603 65.280,256.634 65.059 C 256.662 64.862,256.825 64.664,256.996 64.619 C 257.218 64.561,257.340 64.321,257.420 63.784 C 257.502 63.241,257.622 63.007,257.850 62.947 C 258.120 62.877,258.167 62.705,258.167 61.784 C 258.167 60.770,258.192 60.696,258.583 60.598 L 259.000 60.494 259.000 58.182 L 259.000 55.869 259.417 55.765 L 259.833 55.660 259.833 52.583 L 259.833 49.506 259.417 49.402 L 259.000 49.297 259.000 47.000 L 259.000 44.703 258.583 44.598 C 258.189 44.499,258.167 44.432,258.167 43.330 C 258.167 42.289,258.133 42.167,257.842 42.167 C 257.574 42.167,257.510 42.031,257.467 41.375 C 257.424 40.699,257.362 40.576,257.042 40.530 C 256.717 40.484,256.667 40.377,256.667 39.738 C 256.667 39.062,256.632 39.000,256.250 39.000 C 255.917 39.000,255.833 38.917,255.833 38.583 C 255.833 38.250,255.750 38.167,255.417 38.167 C 255.083 38.167,255.000 38.083,255.000 37.750 C 255.000 37.417,254.917 37.333,254.583 37.333 C 254.250 37.333,254.167 37.250,254.167 36.917 C 254.167 36.583,254.083 36.500,253.750 36.500 C 253.452 36.500,253.333 36.410,253.333 36.184 C 253.333 35.825,253.023 35.667,252.320 35.667 C 251.944 35.667,251.833 35.591,251.833 35.333 C 251.833 35.044,251.722 35.000,251.000 35.000 C 250.221 35.000,250.167 34.973,250.167 34.581 L 250.167 34.162 245.375 34.206 L 240.583 34.250 240.530 34.625 C 240.481 34.973,240.393 35.000,239.322 35.000 C 238.278 35.000,238.167 35.032,238.167 35.333 C 238.167 35.598,238.055 35.667,237.625 35.669 C 236.487 35.672,235.833 35.862,235.833 36.188 C 235.833 36.410,235.712 36.500,235.417 36.500 L 235.000 36.500 235.000 28.917 L 235.000 21.333 230.583 21.333 L 226.166 21.333 226.208 45.792 M321.667 27.748 L 321.667 34.162 315.708 34.206 L 309.750 34.250 309.697 34.625 C 309.647 34.973,309.560 35.000,308.473 35.000 C 307.442 35.000,307.292 35.040,307.215 35.333 C 307.154 35.567,306.988 35.667,306.661 35.667 C 305.981 35.667,305.667 35.828,305.667 36.175 C 305.667 36.423,305.514 36.492,304.875 36.533 C 304.207 36.575,304.075 36.640,304.031 36.948 C 303.999 37.175,303.842 37.332,303.615 37.365 C 303.384 37.398,303.230 37.554,303.197 37.792 C 303.164 38.024,303.028 38.167,302.840 38.167 C 302.655 38.167,302.495 38.330,302.432 38.583 C 302.364 38.852,302.210 39.000,301.997 39.000 C 301.756 39.000,301.667 39.112,301.667 39.417 C 301.667 39.750,301.583 39.833,301.250 39.833 C 300.920 39.833,300.833 39.917,300.833 40.238 C 300.833 40.532,300.730 40.658,300.458 40.697 C 300.148 40.741,300.075 40.870,300.033 41.448 C 299.991 42.021,299.916 42.155,299.616 42.198 C 299.287 42.245,299.245 42.362,299.201 43.351 C 299.158 44.337,299.109 44.473,298.743 44.640 C 298.370 44.809,298.333 44.922,298.333 45.894 C 298.333 46.821,298.290 46.973,298.000 47.048 C 297.481 47.184,297.475 59.833,297.994 59.833 C 298.292 59.833,298.325 59.971,298.369 61.375 C 298.414 62.830,298.438 62.920,298.792 62.970 C 299.132 63.018,299.167 63.114,299.167 64.000 C 299.167 64.928,299.421 65.500,299.834 65.500 C 299.912 65.500,300.001 65.669,300.030 65.875 C 300.064 66.116,300.217 66.269,300.458 66.303 C 300.783 66.349,300.833 66.456,300.833 67.095 C 300.833 67.771,300.868 67.833,301.250 67.833 C 301.583 67.833,301.667 67.917,301.667 68.250 C 301.667 68.583,301.750 68.667,302.083 68.667 C 302.417 68.667,302.500 68.750,302.500 69.083 C 302.500 69.389,302.589 69.500,302.833 69.500 C 303.017 69.500,303.167 69.610,303.167 69.744 C 303.167 70.067,303.689 70.333,304.322 70.333 C 304.722 70.333,304.833 70.406,304.833 70.667 C 304.833 70.956,304.944 71.000,305.667 71.000 C 306.444 71.000,306.500 71.028,306.500 71.417 L 306.500 71.833 312.083 71.833 L 317.667 71.833 317.667 71.417 C 317.667 71.012,317.700 71.000,318.833 71.000 C 319.889 71.000,320.000 70.968,320.000 70.667 C 320.000 70.378,320.111 70.333,320.833 70.333 C 321.611 70.333,321.667 70.306,321.667 69.917 C 321.667 69.583,321.750 69.500,322.083 69.500 C 322.388 69.500,322.500 69.589,322.500 69.830 C 322.500 70.043,322.648 70.197,322.917 70.265 C 323.177 70.330,323.333 70.487,323.333 70.685 C 323.333 70.984,323.513 71.000,326.917 71.000 L 330.500 71.000 330.500 46.167 L 330.500 21.333 326.083 21.333 L 321.667 21.333 321.667 27.748 M130.611 22.944 C 130.550 23.006,130.500 23.191,130.500 23.356 C 130.500 23.624,130.302 23.661,128.625 23.703 C 126.863 23.747,126.740 23.773,126.585 24.125 C 126.452 24.429,126.287 24.500,125.714 24.500 C 125.098 24.500,124.993 24.554,124.902 24.917 C 124.810 25.282,124.707 25.333,124.065 25.333 C 123.396 25.333,123.333 25.369,123.333 25.750 C 123.333 26.083,123.250 26.167,122.917 26.167 C 122.616 26.167,122.500 26.256,122.500 26.488 C 122.500 26.695,122.366 26.829,122.125 26.863 C 121.888 26.897,121.731 27.051,121.698 27.281 C 121.666 27.509,121.509 27.666,121.281 27.698 C 121.051 27.731,120.897 27.888,120.863 28.125 C 120.829 28.366,120.695 28.500,120.488 28.500 C 120.259 28.500,120.167 28.616,120.167 28.905 C 120.167 29.198,120.063 29.325,119.792 29.363 C 119.451 29.412,119.412 29.520,119.368 30.531 C 119.323 31.535,119.282 31.651,118.951 31.698 L 118.583 31.750 118.539 36.958 L 118.495 42.167 118.914 42.167 C 119.322 42.167,119.333 42.198,119.333 43.333 C 119.333 44.467,119.345 44.500,119.750 44.500 C 120.083 44.500,120.167 44.583,120.167 44.917 C 120.167 45.222,120.256 45.333,120.500 45.333 C 120.744 45.333,120.833 45.444,120.833 45.750 C 120.833 46.083,120.917 46.167,121.250 46.167 C 121.583 46.167,121.667 46.250,121.667 46.583 C 121.667 46.917,121.750 47.000,122.083 47.000 C 122.417 47.000,122.500 47.083,122.500 47.417 C 122.500 47.750,122.583 47.833,122.917 47.833 C 123.214 47.833,123.333 47.923,123.333 48.149 C 123.333 48.520,123.645 48.667,124.430 48.667 C 124.889 48.667,125.000 48.732,125.000 49.000 C 125.000 49.302,125.111 49.333,126.167 49.333 C 127.300 49.333,127.333 49.345,127.333 49.750 C 127.333 50.165,127.340 50.167,128.905 50.167 C 130.408 50.167,130.479 50.183,130.530 50.542 C 130.582 50.908,130.639 50.918,132.947 50.963 C 135.247 51.008,135.313 51.019,135.364 51.380 C 135.413 51.728,135.509 51.753,136.948 51.798 C 138.384 51.843,138.482 51.868,138.531 52.214 C 138.575 52.527,138.704 52.591,139.375 52.634 C 140.031 52.676,140.167 52.741,140.167 53.009 C 140.167 53.242,140.282 53.333,140.574 53.333 C 140.942 53.333,140.987 53.410,141.033 54.125 C 141.076 54.801,141.138 54.924,141.458 54.970 C 141.827 55.022,141.833 55.061,141.833 57.428 L 141.833 59.833 141.417 59.833 C 141.028 59.833,141.000 59.889,141.000 60.667 C 141.000 61.444,140.972 61.500,140.583 61.500 C 140.286 61.500,140.167 61.590,140.167 61.814 C 140.167 62.134,139.747 62.327,139.042 62.331 C 138.779 62.333,138.667 62.433,138.667 62.667 C 138.667 62.919,138.555 63.001,138.208 63.002 C 137.423 63.006,137.000 63.187,137.000 63.519 C 137.000 63.821,136.763 63.833,130.917 63.833 C 124.991 63.833,124.833 63.825,124.833 63.508 C 124.833 63.052,124.242 62.975,121.167 63.034 L 118.583 63.083 118.539 67.042 L 118.494 71.000 120.062 71.000 C 121.596 71.000,121.633 71.009,121.735 71.417 L 121.840 71.833 131.003 71.833 L 140.167 71.833 140.167 71.417 C 140.167 71.012,140.200 71.000,141.333 71.000 C 142.378 71.000,142.500 70.966,142.500 70.676 C 142.500 70.407,142.636 70.343,143.292 70.301 C 143.967 70.257,144.091 70.195,144.137 69.875 C 144.182 69.558,144.292 69.500,144.849 69.500 C 145.393 69.500,145.535 69.430,145.662 69.096 C 145.751 68.862,145.977 68.669,146.199 68.638 C 146.449 68.602,146.602 68.452,146.637 68.208 C 146.671 67.967,146.805 67.833,147.012 67.833 C 147.244 67.833,147.333 67.717,147.333 67.417 C 147.333 67.083,147.417 67.000,147.750 67.000 C 148.080 67.000,148.167 66.916,148.167 66.595 C 148.167 66.302,148.270 66.175,148.542 66.137 C 148.852 66.092,148.925 65.964,148.967 65.385 C 149.009 64.813,149.084 64.678,149.384 64.635 C 149.717 64.588,149.754 64.474,149.799 63.375 C 149.846 62.216,149.865 62.167,150.257 62.167 L 150.667 62.167 150.667 56.847 C 150.667 51.226,150.647 51.000,150.149 51.000 C 149.886 51.000,149.833 50.875,149.833 50.253 C 149.833 49.600,149.782 49.494,149.425 49.404 C 149.086 49.319,149.009 49.185,148.967 48.609 C 148.925 48.036,148.852 47.907,148.542 47.863 C 148.270 47.825,148.167 47.698,148.167 47.405 C 148.167 47.087,148.079 47.000,147.762 47.000 C 147.468 47.000,147.342 46.896,147.303 46.625 C 147.259 46.314,147.130 46.241,146.552 46.199 C 145.979 46.158,145.845 46.083,145.802 45.783 C 145.770 45.557,145.613 45.397,145.392 45.366 C 145.195 45.338,144.999 45.180,144.956 45.016 C 144.876 44.709,144.118 44.505,143.042 44.502 C 142.612 44.500,142.500 44.431,142.500 44.167 C 142.500 43.857,142.389 43.833,140.917 43.833 C 139.339 43.833,139.333 43.832,139.333 43.417 L 139.333 43.000 136.917 43.000 L 134.500 43.000 134.500 42.583 C 134.500 42.168,134.494 42.167,132.928 42.167 C 131.425 42.167,131.354 42.150,131.303 41.792 C 131.258 41.473,131.134 41.409,130.469 41.366 C 129.810 41.324,129.679 41.259,129.635 40.950 C 129.602 40.717,129.446 40.564,129.208 40.530 C 128.967 40.496,128.833 40.362,128.833 40.155 C 128.833 39.948,128.718 39.833,128.512 39.833 C 128.305 39.833,128.171 39.699,128.137 39.458 C 128.102 39.217,127.949 39.064,127.708 39.030 C 127.163 38.953,127.112 34.833,127.656 34.833 C 127.912 34.833,128.003 34.676,128.092 34.083 C 128.180 33.499,128.274 33.333,128.519 33.333 C 128.743 33.333,128.833 33.214,128.833 32.917 C 128.833 32.583,128.917 32.500,129.250 32.500 C 129.583 32.500,129.667 32.417,129.667 32.083 C 129.667 31.678,129.699 31.667,130.849 31.667 C 131.891 31.667,132.042 31.627,132.118 31.333 C 132.203 31.008,132.346 31.000,137.750 31.000 C 143.154 31.000,143.297 31.008,143.382 31.333 C 143.464 31.650,143.609 31.667,146.237 31.667 L 149.006 31.667 148.961 27.708 L 148.917 23.750 146.976 23.703 C 145.264 23.662,145.027 23.621,144.957 23.353 C 144.910 23.173,144.659 23.007,144.335 22.942 C 143.618 22.799,130.755 22.801,130.611 22.944 M263.114 22.942 C 263.051 23.004,263.000 25.181,263.000 27.778 L 263.000 32.500 267.086 32.500 L 271.172 32.500 271.128 27.708 L 271.083 22.917 267.156 22.872 C 264.996 22.848,263.177 22.879,263.114 22.942 M362.778 23.778 C 362.717 23.839,362.667 24.401,362.667 25.028 C 362.667 26.131,362.654 26.167,362.250 26.167 C 361.846 26.167,361.833 26.201,361.833 27.322 C 361.833 28.393,361.806 28.481,361.458 28.530 C 361.114 28.579,361.079 28.683,361.034 29.792 C 360.992 30.838,360.944 31.000,360.677 31.000 C 360.327 31.000,360.167 31.314,360.167 32.002 C 360.167 32.331,360.064 32.510,359.833 32.583 C 359.542 32.676,359.500 32.836,359.500 33.845 C 359.500 34.966,359.488 35.000,359.083 35.000 C 358.679 35.000,358.667 35.034,358.667 36.155 C 358.667 37.226,358.639 37.314,358.292 37.363 C 357.948 37.412,357.913 37.516,357.868 38.625 C 357.821 39.784,357.802 39.833,357.409 39.833 C 357.014 39.833,357.000 39.873,357.000 40.988 C 357.000 42.059,356.973 42.147,356.625 42.197 C 356.285 42.245,356.245 42.353,356.201 43.366 C 356.160 44.303,356.099 44.499,355.826 44.586 C 355.568 44.668,355.500 44.841,355.500 45.416 C 355.500 46.044,355.448 46.151,355.125 46.197 C 354.781 46.246,354.746 46.350,354.701 47.458 C 354.654 48.617,354.635 48.667,354.243 48.667 C 353.847 48.667,353.833 48.706,353.833 49.822 C 353.833 50.893,353.806 50.981,353.458 51.030 C 353.114 51.079,353.079 51.183,353.034 52.292 C 352.987 53.450,352.969 53.500,352.576 53.500 C 352.180 53.500,352.167 53.539,352.167 54.667 C 352.167 55.698,352.130 55.833,351.853 55.833 C 351.485 55.833,351.339 56.263,351.336 57.356 C 351.334 57.987,351.272 58.144,351.000 58.215 C 350.729 58.286,350.667 58.442,350.667 59.056 C 350.667 59.711,350.617 59.817,350.292 59.863 C 349.948 59.912,349.913 60.017,349.868 61.114 C 349.824 62.205,349.786 62.317,349.451 62.364 C 349.120 62.412,349.079 62.526,349.034 63.531 C 348.990 64.535,348.949 64.651,348.618 64.698 C 348.287 64.745,348.245 64.861,348.202 65.838 C 348.160 66.777,348.102 66.949,347.785 67.088 C 347.466 67.229,347.410 67.399,347.367 68.375 C 347.324 69.363,347.279 69.500,346.992 69.500 C 346.717 69.500,346.667 69.617,346.667 70.250 L 346.667 71.000 351.417 71.000 L 356.167 71.000 356.167 70.268 C 356.167 69.626,356.218 69.523,356.583 69.432 C 356.978 69.333,357.000 69.266,357.000 68.163 C 357.000 67.034,357.012 67.000,357.417 67.000 C 357.821 67.000,357.833 66.966,357.833 65.845 C 357.833 64.774,357.861 64.686,358.208 64.637 C 358.552 64.588,358.587 64.484,358.632 63.375 C 358.677 62.284,358.714 62.167,359.023 62.167 C 359.224 62.167,359.400 62.030,359.452 61.833 C 359.538 61.505,359.679 61.500,368.665 61.500 L 377.790 61.500 377.905 62.667 C 378.004 63.671,378.065 63.833,378.343 63.833 C 378.630 63.833,378.667 63.956,378.667 64.920 C 378.667 65.913,378.702 66.023,379.076 66.194 C 379.443 66.361,379.491 66.497,379.535 67.482 C 379.578 68.473,379.620 68.589,379.951 68.636 C 380.282 68.683,380.323 68.798,380.368 69.802 L 380.417 70.917 385.216 70.961 L 390.015 71.005 389.966 69.878 C 389.921 68.853,389.883 68.745,389.542 68.697 C 389.194 68.647,389.167 68.559,389.167 67.488 C 389.167 66.373,389.153 66.333,388.757 66.333 C 388.365 66.333,388.346 66.284,388.299 65.125 C 388.254 64.016,388.219 63.912,387.875 63.863 C 387.527 63.814,387.500 63.726,387.500 62.655 C 387.500 61.534,387.488 61.500,387.083 61.500 C 386.679 61.500,386.667 61.466,386.667 60.345 C 386.667 59.336,386.624 59.176,386.333 59.083 C 386.066 58.998,386.000 58.831,386.000 58.239 C 386.000 57.565,385.964 57.500,385.591 57.500 C 385.198 57.500,385.179 57.450,385.132 56.292 C 385.087 55.183,385.052 55.079,384.708 55.030 C 384.361 54.981,384.333 54.893,384.333 53.822 C 384.333 52.706,384.319 52.667,383.924 52.667 C 383.531 52.667,383.513 52.617,383.466 51.458 C 383.421 50.350,383.386 50.246,383.042 50.197 C 382.694 50.147,382.667 50.059,382.667 48.988 C 382.667 47.944,382.635 47.833,382.333 47.833 C 382.057 47.833,382.000 47.722,382.000 47.188 C 382.000 46.129,381.824 45.536,381.482 45.447 C 381.230 45.381,381.167 45.210,381.167 44.599 C 381.167 43.897,381.133 43.833,380.757 43.833 C 380.365 43.833,380.346 43.784,380.299 42.625 C 380.254 41.516,380.219 41.412,379.875 41.363 C 379.527 41.314,379.500 41.226,379.500 40.155 C 379.500 39.040,379.486 39.000,379.091 39.000 C 378.698 39.000,378.679 38.950,378.632 37.792 C 378.587 36.683,378.552 36.579,378.208 36.530 C 377.861 36.481,377.833 36.393,377.833 35.322 C 377.833 34.278,377.801 34.167,377.500 34.167 C 377.224 34.167,377.167 34.056,377.167 33.521 C 377.167 32.405,376.990 31.833,376.646 31.833 C 376.382 31.833,376.333 31.704,376.333 31.000 C 376.333 30.226,376.304 30.167,375.924 30.167 C 375.531 30.167,375.513 30.117,375.466 28.958 C 375.421 27.850,375.386 27.746,375.042 27.697 C 374.694 27.647,374.667 27.559,374.667 26.488 C 374.667 25.367,374.654 25.333,374.250 25.333 C 373.861 25.333,373.833 25.278,373.833 24.500 L 373.833 23.667 368.361 23.667 C 365.351 23.667,362.839 23.717,362.778 23.778 M391.585 24.208 C 391.532 24.506,391.510 35.137,391.536 47.833 L 391.583 70.917 395.792 70.961 L 400.000 71.006 400.000 47.336 L 400.000 23.667 395.841 23.667 L 391.682 23.667 391.585 24.208 M205.303 34.542 C 205.254 34.886,205.150 34.921,204.042 34.966 C 202.970 35.009,202.833 35.052,202.833 35.341 C 202.833 35.601,202.718 35.667,202.264 35.667 C 201.478 35.667,201.167 35.814,201.167 36.184 C 201.167 36.449,201.040 36.500,200.375 36.502 C 199.264 36.505,198.833 36.650,198.833 37.019 C 198.833 37.243,198.714 37.333,198.417 37.333 C 198.012 37.333,198.000 37.300,198.000 36.167 L 198.000 35.000 194.000 35.000 L 190.000 35.000 190.000 53.000 L 190.000 71.000 194.000 71.000 L 198.000 71.000 198.000 58.595 L 198.000 46.190 198.375 46.137 C 198.613 46.103,198.769 45.949,198.802 45.717 C 198.845 45.417,198.979 45.342,199.552 45.301 C 200.130 45.259,200.259 45.186,200.303 44.875 C 200.350 44.549,200.455 44.500,201.111 44.500 C 201.718 44.500,201.881 44.437,201.949 44.175 C 202.013 43.931,202.206 43.838,202.725 43.800 C 203.251 43.762,203.455 43.662,203.578 43.382 C 203.718 43.064,203.890 43.007,204.828 42.965 C 205.813 42.921,205.922 42.881,205.970 42.542 C 206.022 42.173,206.061 42.167,208.417 42.167 C 210.772 42.167,210.811 42.173,210.863 42.542 C 210.897 42.776,211.051 42.936,211.275 42.968 C 211.472 42.996,211.671 43.165,211.717 43.343 C 211.767 43.533,211.946 43.667,212.151 43.667 C 212.412 43.667,212.500 43.772,212.500 44.083 C 212.500 44.417,212.583 44.500,212.917 44.500 L 213.333 44.500 213.333 57.750 L 213.333 71.000 217.334 71.000 L 221.335 71.000 221.293 55.792 L 221.250 40.583 220.875 40.530 C 220.539 40.482,220.500 40.383,220.500 39.585 C 220.500 38.479,220.386 38.167,219.982 38.167 C 219.757 38.167,219.667 38.048,219.667 37.750 C 219.667 37.417,219.583 37.333,219.250 37.333 C 218.917 37.333,218.833 37.250,218.833 36.917 C 218.833 36.583,218.750 36.500,218.417 36.500 C 218.112 36.500,218.000 36.411,218.000 36.170 C 218.000 35.957,217.852 35.803,217.583 35.735 C 217.323 35.670,217.167 35.513,217.167 35.315 C 217.167 35.036,217.033 35.000,216.000 35.000 C 214.867 35.000,214.833 34.988,214.833 34.583 L 214.833 34.167 210.095 34.167 L 205.357 34.167 205.303 34.542 M296.000 34.576 L 296.000 35.000 294.000 35.000 C 292.111 35.000,292.000 35.019,292.000 35.333 C 292.000 35.598,291.888 35.667,291.458 35.669 C 290.320 35.672,289.667 35.862,289.667 36.188 C 289.667 36.417,289.544 36.501,289.208 36.502 C 288.423 36.506,288.000 36.687,288.000 37.019 C 288.000 37.243,287.880 37.333,287.583 37.333 C 287.252 37.333,287.167 37.417,287.167 37.741 C 287.167 38.109,287.090 38.153,286.375 38.199 C 285.699 38.243,285.576 38.305,285.530 38.625 C 285.492 38.896,285.365 39.000,285.072 39.000 L 284.667 39.000 284.667 37.000 L 284.667 35.000 280.667 35.000 L 276.667 35.000 276.667 53.000 L 276.667 71.000 280.667 71.000 L 284.667 71.000 284.667 59.417 L 284.667 47.833 285.236 47.833 C 286.022 47.833,286.333 47.686,286.333 47.316 C 286.333 47.053,286.459 47.000,287.080 47.000 C 287.738 47.000,287.839 46.950,287.932 46.583 C 288.023 46.218,288.126 46.167,288.768 46.167 C 289.438 46.167,289.500 46.131,289.500 45.750 C 289.500 45.361,289.556 45.333,290.333 45.333 C 291.111 45.333,291.167 45.306,291.167 44.917 C 291.167 44.512,291.200 44.500,292.333 44.500 C 293.380 44.500,293.500 44.467,293.500 44.174 C 293.500 43.885,293.637 43.842,294.708 43.799 C 295.817 43.754,295.921 43.719,295.970 43.375 C 296.019 43.027,296.107 43.000,297.181 43.000 L 298.339 43.000 298.294 38.625 L 298.250 34.250 297.125 34.201 C 296.018 34.152,296.000 34.158,296.000 34.576 M369.073 36.181 C 369.170 37.161,369.234 37.333,369.502 37.333 C 369.776 37.333,369.825 37.483,369.867 38.458 C 369.910 39.434,369.966 39.605,370.285 39.745 C 370.602 39.884,370.660 40.057,370.702 40.995 C 370.745 41.979,370.786 42.088,371.125 42.137 C 371.473 42.186,371.500 42.274,371.500 43.345 C 371.500 44.460,371.514 44.500,371.909 44.500 C 372.302 44.500,372.321 44.550,372.368 45.708 C 372.413 46.817,372.448 46.921,372.792 46.970 C 373.139 47.019,373.167 47.107,373.167 48.178 C 373.167 49.222,373.199 49.333,373.500 49.333 C 373.776 49.333,373.833 49.444,373.833 49.979 C 373.833 51.029,374.015 51.649,374.353 51.756 C 374.598 51.834,374.667 52.018,374.667 52.595 L 374.667 53.333 368.250 53.333 L 361.833 53.333 361.833 52.595 C 361.833 51.956,361.884 51.849,362.208 51.803 C 362.552 51.754,362.587 51.650,362.632 50.552 C 362.676 49.462,362.714 49.350,363.049 49.302 C 363.381 49.255,363.421 49.140,363.466 48.125 C 363.508 47.160,363.559 47.000,363.823 47.000 C 364.226 47.000,364.333 46.682,364.333 45.486 C 364.333 44.611,364.371 44.500,364.667 44.500 C 364.968 44.500,365.000 44.389,365.000 43.333 C 365.000 42.200,365.012 42.167,365.417 42.167 C 365.821 42.167,365.833 42.133,365.833 41.012 C 365.833 39.941,365.861 39.853,366.208 39.803 C 366.552 39.754,366.587 39.650,366.632 38.542 C 366.679 37.383,366.698 37.333,367.091 37.333 C 367.471 37.333,367.500 37.274,367.500 36.500 C 367.500 35.778,367.544 35.667,367.833 35.667 C 368.045 35.667,368.167 35.556,368.167 35.361 C 368.167 34.191,368.947 34.896,369.073 36.181 M153.041 49.375 L 153.083 63.750 153.458 63.803 C 153.817 63.854,153.833 63.925,153.833 65.428 C 153.833 66.984,153.837 67.000,154.241 67.000 C 154.609 67.000,154.653 67.077,154.699 67.792 C 154.743 68.467,154.805 68.591,155.125 68.637 C 155.396 68.675,155.500 68.802,155.500 69.095 C 155.500 69.371,155.594 69.500,155.794 69.500 C 155.955 69.500,156.162 69.669,156.252 69.875 C 156.379 70.165,156.578 70.262,157.125 70.301 C 157.698 70.343,157.833 70.415,157.833 70.676 C 157.833 70.954,157.953 71.000,158.667 71.000 C 159.444 71.000,159.500 71.028,159.500 71.417 L 159.500 71.833 164.667 71.833 L 169.833 71.833 169.833 71.417 C 169.833 71.009,169.861 71.000,171.083 71.000 C 172.222 71.000,172.333 70.970,172.333 70.667 C 172.333 70.374,172.444 70.333,173.236 70.333 C 174.354 70.333,174.667 70.220,174.667 69.816 C 174.667 69.548,174.793 69.500,175.500 69.500 C 176.278 69.500,176.333 69.472,176.333 69.083 C 176.333 68.750,176.417 68.667,176.750 68.667 C 177.155 68.667,177.167 68.700,177.167 69.833 L 177.167 71.000 181.167 71.000 L 185.167 71.000 185.167 53.000 L 185.167 35.000 180.750 35.000 L 176.333 35.000 176.333 47.833 L 176.333 60.667 175.917 60.667 C 175.583 60.667,175.500 60.750,175.500 61.083 C 175.500 61.467,175.440 61.500,174.734 61.500 C 174.109 61.500,173.953 61.561,173.882 61.833 C 173.829 62.034,173.653 62.168,173.439 62.169 C 172.760 62.173,172.333 62.370,172.333 62.679 C 172.333 62.944,172.169 62.992,171.125 63.034 C 170.016 63.079,169.912 63.114,169.863 63.458 C 169.812 63.817,169.741 63.833,168.238 63.833 C 166.673 63.833,166.667 63.835,166.667 64.250 C 166.667 64.823,165.884 64.861,165.803 64.292 C 165.755 63.951,165.647 63.912,164.636 63.868 C 163.631 63.823,163.516 63.782,163.469 63.451 C 163.436 63.217,163.280 63.064,163.042 63.030 C 162.809 62.997,162.667 62.861,162.667 62.673 C 162.667 62.488,162.504 62.329,162.250 62.265 L 161.833 62.160 161.833 48.580 L 161.833 35.000 157.416 35.000 L 152.998 35.000 153.041 49.375 M263.000 53.000 L 263.000 71.000 267.083 71.000 L 271.167 71.000 271.167 53.000 L 271.167 35.000 267.083 35.000 L 263.000 35.000 263.000 53.000 M318.931 42.167 L 321.667 42.167 321.667 51.833 L 321.667 61.500 321.318 61.500 C 321.115 61.500,320.934 61.633,320.886 61.817 C 320.827 62.043,320.594 62.165,320.068 62.244 C 319.490 62.330,319.333 62.423,319.333 62.677 C 319.333 62.951,319.213 63.000,318.542 63.002 C 317.467 63.005,317.030 63.144,316.911 63.518 C 316.825 63.787,316.643 63.833,315.655 63.833 C 314.534 63.833,314.500 63.846,314.500 64.250 C 314.500 64.868,312.057 64.908,311.970 64.292 C 311.922 63.951,311.814 63.912,310.802 63.868 C 309.798 63.823,309.683 63.782,309.636 63.451 C 309.602 63.217,309.447 63.064,309.208 63.030 C 308.976 62.997,308.833 62.861,308.833 62.673 C 308.833 62.488,308.670 62.329,308.417 62.265 C 308.050 62.173,308.000 62.071,308.000 61.413 C 308.000 60.728,307.966 60.667,307.583 60.667 C 307.194 60.667,307.167 60.611,307.167 59.833 C 307.167 59.111,307.122 59.000,306.833 59.000 C 306.507 59.000,306.500 58.889,306.500 53.750 C 306.500 48.611,306.507 48.500,306.833 48.500 C 307.135 48.500,307.167 48.389,307.167 47.333 C 307.167 46.200,307.179 46.167,307.583 46.167 C 307.913 46.167,308.000 46.083,308.000 45.762 C 308.000 45.468,308.104 45.342,308.375 45.303 C 308.685 45.259,308.759 45.130,308.800 44.559 C 308.850 43.880,308.863 43.867,309.592 43.757 C 310.176 43.670,310.333 43.578,310.333 43.323 C 310.333 43.066,310.450 43.000,310.903 43.000 C 311.688 43.000,312.000 42.853,312.000 42.482 C 312.000 42.190,312.149 42.167,314.000 42.167 C 315.482 42.167,316.003 42.113,316.013 41.958 C 316.024 41.792,316.043 41.792,316.110 41.958 C 316.173 42.113,316.898 42.167,318.931 42.167 M246.252 42.542 C 246.379 42.830,246.578 42.928,247.115 42.967 C 247.687 43.009,247.822 43.084,247.865 43.384 C 247.898 43.616,248.054 43.769,248.292 43.803 C 248.610 43.848,248.667 43.959,248.667 44.527 C 248.667 45.046,248.738 45.217,248.983 45.281 C 249.211 45.340,249.332 45.575,249.413 46.117 C 249.495 46.664,249.614 46.894,249.846 46.955 C 250.128 47.029,250.167 47.197,250.167 48.339 C 250.167 49.857,250.255 50.167,250.684 50.167 C 251.225 50.167,251.166 55.787,250.625 55.863 C 250.271 55.914,250.247 56.004,250.202 57.448 C 250.157 58.884,250.132 58.982,249.786 59.031 C 249.473 59.075,249.409 59.204,249.366 59.875 C 249.324 60.531,249.259 60.667,248.991 60.667 C 248.756 60.667,248.667 60.782,248.667 61.083 C 248.667 61.413,248.583 61.500,248.262 61.500 C 247.968 61.500,247.842 61.604,247.803 61.875 C 247.769 62.116,247.616 62.269,247.375 62.303 C 247.139 62.337,247.000 62.472,247.000 62.669 C 247.000 62.917,246.855 62.991,246.292 63.032 C 245.749 63.071,245.546 63.169,245.422 63.452 C 245.282 63.769,245.110 63.826,244.172 63.868 C 243.187 63.912,243.078 63.952,243.030 64.292 C 242.953 64.833,237.333 64.892,237.333 64.351 C 237.333 63.947,237.021 63.833,235.903 63.833 L 235.000 63.833 235.000 54.583 C 235.000 45.444,235.004 45.333,235.333 45.333 C 235.578 45.333,235.667 45.222,235.667 44.917 C 235.667 44.533,235.727 44.500,236.432 44.500 C 237.044 44.500,237.214 44.436,237.281 44.183 C 237.340 43.958,237.572 43.835,238.090 43.758 C 238.605 43.681,238.847 43.554,238.920 43.324 C 239.001 43.067,239.176 43.000,239.761 43.000 C 240.438 43.000,240.500 42.965,240.500 42.583 L 240.500 42.167 243.294 42.167 C 246.031 42.167,246.091 42.174,246.252 42.542 " stroke="none" fill="#fcfcfc" fill-rule="evenodd"></path><path id="path1" d="M51.833 0.167 C 51.833 0.267,51.143 0.333,50.097 0.333 C 48.145 0.333,47.833 0.403,47.833 0.844 C 47.833 1.108,47.673 1.158,46.708 1.201 C 45.726 1.244,45.562 1.298,45.419 1.625 C 45.285 1.930,45.121 2.000,44.544 2.000 C 43.901 2.000,43.833 2.039,43.833 2.408 C 43.833 2.775,43.756 2.820,43.042 2.866 C 42.366 2.909,42.242 2.972,42.197 3.292 C 42.158 3.563,42.032 3.667,41.738 3.667 C 41.417 3.667,41.333 3.753,41.333 4.083 C 41.333 4.417,41.250 4.500,40.917 4.500 C 40.619 4.500,40.500 4.590,40.500 4.814 C 40.500 5.059,40.334 5.154,39.750 5.241 C 39.175 5.327,39.000 5.425,39.000 5.659 C 39.000 5.845,38.838 6.005,38.583 6.068 C 38.314 6.136,38.167 6.290,38.167 6.503 C 38.167 6.716,38.055 6.833,37.851 6.833 C 37.480 6.833,37.333 7.145,37.333 7.930 C 37.333 8.427,37.280 8.500,36.917 8.500 C 36.611 8.500,36.500 8.589,36.500 8.833 C 36.500 9.195,36.009 9.245,33.214 9.170 C 31.630 9.127,31.000 9.271,31.000 9.674 C 31.000 9.955,30.840 9.992,29.458 10.035 C 28.051 10.079,27.903 10.115,27.755 10.452 C 27.616 10.769,27.443 10.826,26.505 10.868 C 25.529 10.912,25.411 10.954,25.365 11.283 C 25.321 11.592,25.190 11.657,24.531 11.700 C 23.866 11.742,23.742 11.806,23.697 12.125 C 23.651 12.449,23.544 12.500,22.905 12.500 C 22.229 12.500,22.167 12.535,22.167 12.917 C 22.167 13.250,22.083 13.333,21.750 13.333 C 21.444 13.333,21.333 13.422,21.333 13.667 C 21.333 13.911,21.222 14.000,20.917 14.000 C 20.583 14.000,20.500 14.083,20.500 14.417 C 20.500 14.792,20.434 14.833,19.830 14.833 C 19.277 14.833,19.126 14.906,18.970 15.250 C 18.865 15.479,18.650 15.667,18.491 15.667 C 18.323 15.667,18.159 15.840,18.098 16.083 C 18.031 16.352,17.877 16.500,17.663 16.500 C 17.422 16.500,17.333 16.612,17.333 16.917 C 17.333 17.250,17.250 17.333,16.917 17.333 C 16.587 17.333,16.500 17.417,16.500 17.738 C 16.500 18.032,16.396 18.158,16.125 18.197 C 15.813 18.241,15.741 18.369,15.699 18.958 C 15.653 19.584,15.600 19.667,15.240 19.667 C 14.920 19.667,14.833 19.753,14.833 20.072 C 14.833 20.365,14.730 20.492,14.458 20.530 C 14.113 20.579,14.083 20.670,14.083 21.667 L 14.083 22.750 14.875 22.801 C 15.565 22.845,15.667 22.810,15.667 22.528 C 15.667 22.272,15.824 22.181,16.417 22.092 C 16.998 22.005,17.167 21.909,17.167 21.668 C 17.167 21.472,17.306 21.337,17.542 21.303 C 17.783 21.269,17.936 21.116,17.970 20.875 C 18.008 20.604,18.135 20.500,18.428 20.500 C 18.747 20.500,18.833 20.413,18.833 20.092 C 18.833 19.725,18.910 19.680,19.625 19.634 C 20.301 19.591,20.424 19.528,20.470 19.208 C 20.516 18.884,20.623 18.833,21.258 18.833 C 21.904 18.833,22.006 18.782,22.098 18.417 C 22.190 18.051,22.293 18.000,22.935 18.000 C 23.550 18.000,23.667 17.948,23.667 17.674 C 23.667 17.388,23.803 17.343,24.792 17.299 C 25.769 17.256,25.938 17.201,26.079 16.880 C 26.231 16.533,26.360 16.507,28.162 16.463 C 30.011 16.418,30.085 16.403,30.137 16.042 C 30.204 15.568,33.333 15.440,33.333 15.911 C 33.333 16.363,33.969 16.500,36.072 16.500 C 38.016 16.500,38.167 16.523,38.167 16.816 C 38.167 17.219,38.479 17.333,39.578 17.333 C 40.321 17.333,40.475 17.386,40.548 17.667 C 40.620 17.939,40.776 18.000,41.401 18.000 C 42.107 18.000,42.167 18.033,42.167 18.417 C 42.167 18.806,42.222 18.833,43.000 18.833 C 43.778 18.833,43.833 18.861,43.833 19.250 C 43.833 19.632,43.895 19.667,44.572 19.667 C 45.211 19.667,45.317 19.717,45.363 20.042 C 45.397 20.279,45.551 20.436,45.781 20.469 C 46.009 20.501,46.166 20.658,46.198 20.885 C 46.231 21.116,46.388 21.270,46.625 21.303 C 46.865 21.337,47.000 21.472,47.000 21.675 C 47.000 21.873,47.152 22.032,47.401 22.094 C 47.621 22.150,47.839 22.339,47.885 22.514 C 47.933 22.696,48.114 22.833,48.306 22.833 C 48.529 22.833,48.662 22.960,48.697 23.208 C 48.731 23.449,48.884 23.602,49.125 23.637 C 49.373 23.672,49.500 23.804,49.500 24.027 C 49.500 24.221,49.638 24.401,49.824 24.449 C 50.002 24.496,50.171 24.695,50.199 24.892 C 50.230 25.113,50.390 25.270,50.615 25.302 C 50.842 25.334,50.999 25.491,51.031 25.719 C 51.064 25.946,51.221 26.103,51.449 26.135 C 51.749 26.178,51.824 26.313,51.866 26.885 C 51.908 27.464,51.981 27.592,52.292 27.637 C 52.563 27.675,52.667 27.802,52.667 28.095 C 52.667 28.387,52.758 28.500,52.994 28.500 C 53.262 28.500,53.342 28.653,53.432 29.333 C 53.520 29.997,53.606 30.167,53.855 30.167 C 54.121 30.167,54.167 30.299,54.167 31.070 C 54.167 32.187,54.280 32.500,54.684 32.500 C 54.964 32.500,55.000 32.633,55.000 33.663 C 55.000 34.766,55.022 34.833,55.417 34.932 L 55.833 35.036 55.833 39.840 L 55.833 44.643 55.458 44.697 C 55.105 44.747,55.081 44.837,55.036 46.281 C 54.991 47.717,54.965 47.815,54.619 47.864 C 54.315 47.907,54.241 48.040,54.199 48.617 C 54.162 49.129,54.064 49.343,53.833 49.417 C 53.603 49.490,53.505 49.704,53.468 50.217 C 53.425 50.797,53.353 50.926,53.042 50.970 C 52.711 51.017,52.667 51.120,52.667 51.845 C 52.667 52.610,52.638 52.667,52.250 52.667 C 51.944 52.667,51.833 52.756,51.833 53.000 C 51.833 53.267,51.722 53.333,51.274 53.333 C 49.724 53.333,48.667 53.544,48.667 53.853 C 48.667 54.135,48.454 54.162,45.875 54.204 C 43.129 54.249,43.082 54.256,43.030 54.622 C 42.978 54.993,42.972 54.994,39.030 55.039 L 35.083 55.083 35.030 55.458 C 34.992 55.730,34.865 55.833,34.572 55.833 C 34.251 55.833,34.167 55.920,34.167 56.250 C 34.167 56.584,34.084 56.667,33.746 56.667 L 33.326 56.667 33.371 59.792 C 33.416 62.863,33.423 62.918,33.781 62.969 C 34.009 63.001,34.166 63.158,34.198 63.385 C 34.241 63.685,34.376 63.759,34.958 63.801 C 35.548 63.844,35.682 63.920,35.767 64.260 C 35.856 64.613,35.965 64.667,36.590 64.667 C 37.210 64.667,37.318 64.719,37.363 65.042 C 37.413 65.387,37.514 65.420,38.667 65.465 L 39.918 65.513 39.860 66.247 C 39.812 66.849,39.737 66.990,39.442 67.032 C 39.097 67.081,39.082 67.170,39.037 69.458 L 38.991 71.833 39.412 71.833 C 39.750 71.833,39.833 71.915,39.833 72.250 C 39.833 72.551,39.923 72.667,40.155 72.667 C 40.362 72.667,40.496 72.801,40.530 73.042 C 40.564 73.283,40.717 73.436,40.958 73.470 C 41.165 73.499,41.333 73.588,41.333 73.666 C 41.333 74.081,41.906 74.333,42.845 74.333 C 43.700 74.333,43.833 74.375,43.833 74.646 C 43.833 75.023,44.413 75.167,45.937 75.167 C 47.100 75.167,47.540 75.692,46.579 75.933 L 46.158 76.038 46.204 78.311 C 46.249 80.525,46.260 80.585,46.625 80.637 C 46.896 80.675,47.000 80.802,47.000 81.095 C 47.000 81.416,47.087 81.500,47.417 81.500 C 47.750 81.500,47.833 81.583,47.833 81.917 C 47.833 82.298,47.896 82.333,48.565 82.333 C 49.207 82.333,49.310 82.385,49.402 82.750 L 49.506 83.167 52.670 83.167 L 55.833 83.167 55.833 83.583 C 55.833 83.917,55.750 84.000,55.417 84.000 L 55.000 84.000 55.000 86.333 L 55.000 88.667 55.417 88.667 C 55.750 88.667,55.833 88.750,55.833 89.083 C 55.833 89.417,55.917 89.500,56.250 89.500 C 56.583 89.500,56.667 89.583,56.667 89.917 C 56.667 90.332,56.673 90.333,58.238 90.333 C 59.741 90.333,59.812 90.350,59.863 90.708 C 59.952 91.330,62.167 91.378,62.167 90.758 L 62.167 90.333 64.087 90.333 C 65.983 90.333,66.010 90.328,66.167 89.917 C 66.303 89.557,66.428 89.500,67.079 89.500 C 67.772 89.500,67.833 89.466,67.833 89.083 C 67.833 88.694,67.889 88.667,68.667 88.667 C 69.381 88.667,69.500 88.620,69.500 88.342 C 69.500 88.074,69.636 88.010,70.292 87.967 C 70.961 87.925,71.091 87.860,71.135 87.551 C 71.178 87.251,71.313 87.176,71.885 87.134 C 72.464 87.092,72.592 87.019,72.637 86.708 C 72.675 86.437,72.802 86.333,73.095 86.333 C 73.416 86.333,73.500 86.247,73.500 85.917 C 73.500 85.534,73.561 85.500,74.247 85.500 C 74.904 85.500,75.006 85.450,75.098 85.083 C 75.164 84.823,75.321 84.667,75.518 84.667 C 75.722 84.667,75.833 84.549,75.833 84.333 C 75.833 84.089,75.944 84.000,76.250 84.000 C 76.583 84.000,76.667 83.917,76.667 83.583 C 76.667 83.229,76.744 83.167,77.178 83.167 C 77.803 83.167,78.333 82.902,78.333 82.589 C 78.333 82.461,78.502 82.333,78.708 82.303 C 78.946 82.270,79.102 82.116,79.135 81.885 C 79.168 81.658,79.325 81.501,79.552 81.469 C 79.783 81.436,79.936 81.279,79.970 81.042 C 80.004 80.801,80.138 80.667,80.345 80.667 C 80.577 80.667,80.667 80.551,80.667 80.250 C 80.667 79.917,80.750 79.833,81.083 79.833 C 81.384 79.833,81.500 79.744,81.500 79.512 C 81.500 79.305,81.634 79.171,81.875 79.137 C 82.112 79.103,82.269 78.949,82.302 78.719 C 82.334 78.491,82.491 78.334,82.719 78.302 C 82.949 78.269,83.103 78.112,83.137 77.875 C 83.166 77.669,83.299 77.500,83.432 77.500 C 83.706 77.500,84.000 76.848,84.000 76.239 C 84.000 75.944,84.091 75.833,84.333 75.833 C 84.556 75.833,84.667 75.722,84.667 75.500 C 84.667 75.256,84.778 75.167,85.083 75.167 C 85.413 75.167,85.500 75.083,85.500 74.762 C 85.500 74.468,85.604 74.342,85.875 74.303 C 86.195 74.258,86.257 74.134,86.301 73.458 C 86.347 72.744,86.391 72.667,86.759 72.667 C 87.080 72.667,87.167 72.580,87.167 72.262 C 87.167 71.968,87.270 71.842,87.542 71.803 C 87.852 71.759,87.925 71.630,87.967 71.052 C 88.009 70.479,88.084 70.345,88.384 70.302 C 88.613 70.269,88.770 70.113,88.802 69.883 C 88.831 69.681,89.000 69.470,89.177 69.413 C 89.433 69.332,89.500 69.156,89.500 68.572 C 89.500 67.895,89.535 67.833,89.917 67.833 C 90.305 67.833,90.333 67.777,90.333 67.012 C 90.333 66.286,90.377 66.184,90.708 66.137 C 91.049 66.088,91.088 65.981,91.133 64.958 C 91.179 63.888,91.202 63.833,91.591 63.833 C 91.971 63.833,92.000 63.774,92.000 63.000 C 92.000 62.293,92.048 62.167,92.316 62.167 C 92.719 62.167,92.833 61.854,92.833 60.756 C 92.833 60.012,92.886 59.858,93.167 59.785 C 93.469 59.706,93.500 59.558,93.500 58.185 C 93.500 56.711,93.511 56.670,93.917 56.568 L 94.333 56.464 94.333 53.732 L 94.333 51.000 94.750 51.000 L 95.167 51.000 95.167 45.417 L 95.167 39.833 94.750 39.833 L 94.333 39.833 94.333 37.000 L 94.333 34.167 93.917 34.167 C 93.510 34.167,93.325 32.922,93.491 31.292 C 93.511 31.099,93.405 31.000,93.177 31.000 C 92.869 31.000,92.833 30.899,92.833 30.014 C 92.833 28.818,92.726 28.500,92.323 28.500 C 92.059 28.500,92.008 28.340,91.966 27.375 C 91.921 26.353,91.882 26.245,91.542 26.197 C 91.211 26.150,91.167 26.047,91.167 25.322 C 91.167 24.561,91.136 24.500,90.759 24.500 C 90.391 24.500,90.347 24.423,90.301 23.708 C 90.255 22.995,90.213 22.922,89.875 22.969 C 89.529 23.017,89.500 22.957,89.500 22.177 C 89.500 21.444,89.456 21.333,89.167 21.333 C 88.918 21.333,88.829 21.216,88.816 20.875 C 88.775 19.830,88.746 19.749,88.384 19.698 C 88.084 19.655,88.009 19.521,87.967 18.948 C 87.925 18.370,87.852 18.241,87.542 18.197 C 87.270 18.158,87.167 18.032,87.167 17.738 C 87.167 17.420,87.080 17.333,86.759 17.333 C 86.391 17.333,86.347 17.256,86.301 16.542 C 86.257 15.866,86.195 15.742,85.875 15.697 C 85.604 15.658,85.500 15.532,85.500 15.238 C 85.500 14.917,85.413 14.833,85.083 14.833 C 84.755 14.833,84.667 14.749,84.667 14.435 C 84.667 14.158,84.578 14.044,84.375 14.060 C 84.154 14.078,84.046 13.892,83.930 13.292 C 83.819 12.712,83.700 12.500,83.490 12.500 C 83.323 12.500,83.159 12.326,83.098 12.083 C 83.033 11.825,82.875 11.667,82.683 11.667 C 82.509 11.667,82.333 11.515,82.282 11.321 C 82.232 11.131,82.036 10.935,81.846 10.885 C 81.656 10.835,81.500 10.661,81.500 10.499 C 81.500 10.322,81.332 10.161,81.083 10.098 C 80.821 10.032,80.667 9.876,80.667 9.675 C 80.667 9.472,80.531 9.337,80.292 9.303 C 80.051 9.269,79.898 9.116,79.863 8.875 C 79.817 8.551,79.711 8.500,79.072 8.500 C 78.395 8.500,78.333 8.465,78.333 8.083 C 78.333 7.750,78.250 7.667,77.917 7.667 C 77.583 7.667,77.500 7.583,77.500 7.250 C 77.500 6.920,77.416 6.833,77.095 6.833 C 76.802 6.833,76.675 6.730,76.637 6.458 C 76.592 6.148,76.464 6.075,75.885 6.033 C 75.313 5.991,75.178 5.916,75.135 5.616 C 75.103 5.390,74.946 5.230,74.725 5.199 C 74.528 5.171,74.329 5.002,74.283 4.824 C 74.214 4.562,74.050 4.500,73.432 4.500 C 72.727 4.500,72.667 4.467,72.667 4.083 C 72.667 3.702,72.605 3.667,71.928 3.667 C 71.289 3.667,71.183 3.616,71.137 3.292 C 71.091 2.973,70.967 2.909,70.302 2.866 C 69.643 2.824,69.513 2.759,69.469 2.450 C 69.421 2.117,69.308 2.079,68.219 2.035 C 67.128 1.990,67.017 1.953,66.969 1.618 C 66.922 1.286,66.807 1.245,65.792 1.201 C 64.828 1.158,64.667 1.108,64.667 0.844 C 64.667 0.448,64.117 0.352,61.750 0.339 C 60.702 0.333,59.893 0.258,59.861 0.164 C 59.785 -0.061,51.833 -0.059,51.833 0.167 M55.030 10.375 C 55.064 10.616,55.217 10.769,55.458 10.803 C 55.698 10.837,55.833 10.972,55.833 11.175 C 55.833 11.376,55.987 11.532,56.250 11.598 C 56.834 11.745,56.896 13.333,56.318 13.333 C 56.114 13.333,55.934 13.466,55.885 13.653 C 55.839 13.828,55.621 14.017,55.401 14.072 C 55.146 14.136,55.000 14.293,55.000 14.503 C 55.000 14.744,54.888 14.833,54.583 14.833 C 54.282 14.833,54.167 14.744,54.167 14.510 C 54.167 14.255,54.009 14.163,53.417 14.075 L 52.667 13.962 52.667 12.407 L 52.667 10.852 53.375 10.801 C 53.964 10.759,54.092 10.687,54.137 10.375 C 54.175 10.107,54.302 10.000,54.583 10.000 C 54.864 10.000,54.992 10.107,55.030 10.375 M0.000 37.746 C 0.000 39.334,0.066 40.500,0.155 40.500 C 0.240 40.500,0.334 40.669,0.363 40.875 C 0.398 41.116,0.551 41.269,0.792 41.303 C 1.063 41.342,1.167 41.468,1.167 41.762 C 1.167 42.083,1.253 42.167,1.583 42.167 C 1.917 42.167,2.000 42.250,2.000 42.583 L 2.000 43.000 4.217 43.000 C 7.019 43.000,6.833 43.215,6.833 39.967 L 6.833 37.333 6.426 37.333 C 6.066 37.333,6.013 37.251,5.968 36.625 C 5.926 36.043,5.852 35.907,5.552 35.865 C 5.325 35.832,5.168 35.675,5.135 35.448 C 5.085 35.093,5.013 35.082,2.542 35.037 L 0.000 34.991 0.000 37.746 M7.778 43.111 C 7.717 43.172,7.667 43.360,7.667 43.528 C 7.667 43.740,7.543 43.833,7.262 43.833 C 6.968 43.833,6.842 43.937,6.803 44.208 C 6.769 44.449,6.616 44.602,6.375 44.637 C 5.691 44.734,5.831 49.333,6.518 49.333 C 6.743 49.333,6.833 49.452,6.833 49.750 C 6.833 50.083,6.917 50.167,7.250 50.167 C 7.631 50.167,7.667 50.229,7.667 50.899 C 7.667 51.689,7.821 51.833,8.662 51.833 C 9.023 51.833,9.155 51.929,9.235 52.250 C 9.327 52.617,9.429 52.667,10.087 52.667 C 10.722 52.667,10.833 52.716,10.833 53.000 C 10.833 53.318,10.944 53.333,13.250 53.333 C 15.527 53.333,15.667 53.315,15.667 53.012 C 15.667 52.805,15.801 52.671,16.042 52.637 C 16.276 52.603,16.436 52.449,16.468 52.225 C 16.496 52.028,16.653 51.832,16.817 51.789 C 17.532 51.602,17.526 47.833,16.812 47.833 C 16.575 47.833,16.500 47.710,16.500 47.322 C 16.500 46.697,16.235 46.167,15.922 46.167 C 15.794 46.167,15.666 45.998,15.637 45.792 C 15.602 45.551,15.449 45.398,15.208 45.363 C 14.973 45.330,14.833 45.195,14.833 45.000 C 14.833 44.805,14.694 44.670,14.458 44.637 C 14.217 44.602,14.064 44.449,14.030 44.208 C 13.981 43.861,13.893 43.833,12.822 43.833 C 11.701 43.833,11.667 43.821,11.667 43.417 L 11.667 43.000 9.778 43.000 C 8.739 43.000,7.839 43.050,7.778 43.111 M18.970 51.417 C 18.865 51.646,18.651 51.833,18.493 51.833 C 18.189 51.833,18.006 52.284,18.002 53.042 C 18.001 53.388,17.919 53.500,17.667 53.500 C 17.358 53.500,17.333 53.611,17.333 55.016 C 17.333 56.391,17.364 56.539,17.667 56.618 C 17.867 56.671,18.001 56.847,18.002 57.061 C 18.007 57.747,18.203 58.167,18.519 58.167 C 18.743 58.167,18.833 58.286,18.833 58.583 C 18.833 58.913,18.917 59.000,19.238 59.000 C 19.532 59.000,19.658 59.104,19.697 59.375 C 19.731 59.616,19.884 59.769,20.125 59.803 C 20.357 59.836,20.500 59.972,20.500 60.160 C 20.500 60.552,20.820 60.667,21.919 60.667 C 22.716 60.667,22.816 60.706,22.863 61.042 C 22.917 61.416,22.926 61.417,26.083 61.417 C 29.240 61.417,29.250 61.416,29.303 61.042 C 29.344 60.753,29.466 60.667,29.831 60.667 C 30.628 60.667,30.811 60.511,30.928 59.735 C 31.013 59.165,31.108 59.000,31.352 59.000 C 31.638 59.000,31.667 58.857,31.667 57.417 C 31.667 55.959,31.641 55.833,31.342 55.833 C 31.074 55.833,31.010 55.697,30.967 55.042 C 30.924 54.366,30.862 54.242,30.542 54.197 C 30.302 54.163,30.167 54.028,30.167 53.825 C 30.167 53.624,30.013 53.468,29.750 53.402 C 29.489 53.336,29.333 53.179,29.333 52.982 C 29.333 52.757,29.214 52.667,28.917 52.667 C 28.583 52.667,28.500 52.583,28.500 52.250 C 28.500 51.861,28.444 51.833,27.667 51.833 C 26.889 51.833,26.833 51.806,26.833 51.417 L 26.833 51.000 22.996 51.000 L 19.160 51.000 18.970 51.417 M0.500 53.005 C 0.500 53.191,0.388 53.387,0.250 53.440 C -0.048 53.554,-0.129 57.500,0.167 57.500 C 0.258 57.500,0.333 57.719,0.333 57.986 C 0.333 58.684,0.491 59.000,0.840 59.000 C 1.028 59.000,1.164 59.143,1.197 59.375 C 1.242 59.694,1.366 59.758,2.031 59.800 C 2.690 59.843,2.821 59.908,2.865 60.217 C 2.947 60.796,6.721 60.788,6.803 60.208 C 6.842 59.936,6.968 59.833,7.266 59.833 L 7.676 59.833 7.630 57.458 C 7.585 55.159,7.572 55.082,7.219 55.031 C 6.991 54.999,6.834 54.842,6.802 54.615 C 6.769 54.384,6.612 54.230,6.375 54.197 C 6.134 54.163,6.000 54.029,6.000 53.822 C 6.000 53.600,5.884 53.499,5.625 53.498 C 4.958 53.494,4.513 53.305,4.411 52.982 C 4.251 52.478,0.500 52.501,0.500 53.005 M10.833 59.417 C 10.833 59.750,10.750 59.833,10.417 59.833 C 10.083 59.833,10.000 59.917,10.000 60.250 C 10.000 60.548,9.910 60.667,9.684 60.667 C 8.951 60.667,8.949 64.431,9.683 64.623 C 9.847 64.666,10.004 64.862,10.032 65.059 C 10.064 65.279,10.223 65.437,10.448 65.469 C 10.675 65.501,10.832 65.658,10.865 65.885 C 10.898 66.116,11.054 66.270,11.292 66.303 C 11.533 66.337,11.667 66.471,11.667 66.678 C 11.667 66.953,11.788 67.000,12.500 67.000 C 13.278 67.000,13.333 67.028,13.333 67.417 L 13.333 67.833 16.500 67.833 L 19.667 67.833 19.667 67.417 C 19.667 67.082,19.750 67.000,20.087 67.000 L 20.508 67.000 20.462 64.292 C 20.418 61.649,20.408 61.582,20.052 61.531 C 19.825 61.499,19.668 61.342,19.635 61.115 C 19.603 60.888,19.446 60.730,19.219 60.698 C 18.991 60.666,18.834 60.509,18.802 60.281 C 18.760 59.984,18.624 59.907,18.065 59.867 C 17.525 59.827,17.340 59.729,17.193 59.408 L 17.007 59.000 13.920 59.000 L 10.833 59.000 10.833 59.417 M26.935 63.405 C 26.839 63.787,26.746 63.822,25.707 63.867 C 24.696 63.912,24.578 63.953,24.531 64.281 C 24.499 64.509,24.342 64.666,24.115 64.698 C 23.808 64.742,23.742 64.873,23.700 65.531 C 23.657 66.190,23.592 66.321,23.283 66.365 C 22.614 66.460,22.671 69.500,23.341 69.500 C 23.590 69.500,23.667 69.615,23.667 69.986 C 23.667 70.684,23.825 71.000,24.173 71.000 C 24.361 71.000,24.497 71.143,24.530 71.375 C 24.576 71.695,24.699 71.757,25.375 71.801 C 26.090 71.847,26.167 71.891,26.167 72.259 C 26.167 72.652,26.208 72.667,27.322 72.667 C 28.393 72.667,28.481 72.694,28.530 73.042 C 28.583 73.413,28.611 73.417,31.250 73.417 C 33.856 73.417,33.920 73.408,34.081 73.042 C 34.215 72.737,34.379 72.667,34.956 72.667 C 35.603 72.667,35.667 72.629,35.667 72.250 C 35.667 71.917,35.750 71.833,36.083 71.833 C 36.465 71.833,36.500 71.771,36.500 71.095 C 36.500 70.456,36.551 70.349,36.875 70.303 C 37.451 70.221,37.459 67.280,36.884 67.198 C 36.575 67.154,36.510 67.023,36.467 66.365 C 36.425 65.707,36.359 65.575,36.052 65.531 C 35.825 65.499,35.668 65.342,35.635 65.115 C 35.593 64.816,35.457 64.741,34.885 64.699 C 34.313 64.658,34.178 64.583,34.135 64.283 C 34.088 63.950,33.974 63.912,32.886 63.868 C 31.795 63.824,31.683 63.786,31.636 63.451 C 31.585 63.095,31.511 63.082,29.311 63.037 L 27.038 62.991 26.935 63.405 M7.667 70.750 C 7.667 71.083,7.583 71.167,7.250 71.167 C 6.835 71.167,6.833 71.172,6.833 72.750 C 6.833 74.318,6.837 74.333,7.240 74.333 C 7.600 74.333,7.653 74.416,7.699 75.042 C 7.750 75.744,7.756 75.750,8.442 75.800 C 9.020 75.843,9.152 75.919,9.238 76.263 L 9.342 76.675 12.046 76.629 L 14.750 76.583 14.750 74.250 C 14.750 71.957,14.743 71.916,14.375 71.863 C 14.134 71.829,14.000 71.695,14.000 71.488 C 14.000 71.284,13.885 71.167,13.685 71.167 C 13.487 71.167,13.330 71.011,13.265 70.750 L 13.160 70.333 10.413 70.333 L 7.667 70.333 7.667 70.750 M18.098 73.917 C 18.031 74.186,17.877 74.333,17.663 74.333 C 17.161 74.333,17.150 78.983,17.651 79.114 C 17.826 79.160,18.007 79.341,18.052 79.515 C 18.101 79.700,18.281 79.833,18.484 79.833 C 18.745 79.833,18.833 79.938,18.833 80.250 C 18.833 80.639,18.889 80.667,19.667 80.667 C 20.446 80.667,20.500 80.694,20.500 81.087 L 20.500 81.507 23.625 81.462 C 26.723 81.417,26.750 81.413,26.803 81.042 C 26.842 80.770,26.968 80.667,27.262 80.667 C 27.583 80.667,27.667 80.580,27.667 80.250 C 27.667 79.917,27.750 79.833,28.083 79.833 L 28.500 79.833 28.500 77.935 C 28.500 76.049,28.497 76.035,28.083 75.932 C 27.814 75.864,27.667 75.710,27.667 75.497 C 27.667 75.256,27.554 75.167,27.250 75.167 C 26.917 75.167,26.833 75.083,26.833 74.750 C 26.833 74.452,26.743 74.333,26.518 74.333 C 26.321 74.333,26.164 74.177,26.098 73.917 L 25.994 73.500 22.098 73.500 L 18.203 73.500 18.098 73.917 M32.589 75.482 C 32.534 75.655,32.336 75.837,32.149 75.886 C 31.962 75.935,31.768 76.131,31.718 76.321 C 31.667 76.516,31.491 76.667,31.314 76.667 C 31.021 76.667,31.000 76.828,31.000 79.083 C 31.000 81.360,31.019 81.500,31.322 81.500 C 31.529 81.500,31.663 81.634,31.697 81.875 C 31.730 82.112,31.884 82.269,32.115 82.302 C 32.342 82.334,32.499 82.491,32.531 82.719 C 32.563 82.943,32.721 83.103,32.941 83.134 C 33.138 83.162,33.335 83.320,33.377 83.484 C 33.493 83.925,34.160 84.000,37.938 84.000 L 41.333 84.000 41.333 83.592 C 41.333 83.225,41.410 83.180,42.125 83.134 C 42.801 83.091,42.924 83.028,42.970 82.708 C 43.003 82.476,43.139 82.333,43.327 82.333 C 44.085 82.333,44.080 76.987,43.322 76.746 C 43.154 76.693,42.972 76.507,42.917 76.334 C 42.846 76.112,42.595 75.985,42.075 75.907 C 41.499 75.820,41.333 75.725,41.333 75.481 C 41.333 74.991,32.745 74.992,32.589 75.482 M22.625 84.784 L 22.167 84.855 22.167 86.761 C 22.167 88.556,22.186 88.667,22.500 88.667 C 22.744 88.667,22.833 88.778,22.833 89.083 C 22.833 89.412,22.918 89.500,23.232 89.500 C 23.518 89.500,23.660 89.618,23.735 89.917 L 23.840 90.333 26.170 90.333 L 28.500 90.333 28.500 89.917 C 28.500 89.583,28.583 89.500,28.917 89.500 C 29.247 89.500,29.333 89.416,29.333 89.095 C 29.333 88.802,29.437 88.675,29.708 88.637 C 30.377 88.542,30.334 86.333,29.663 86.333 C 29.422 86.333,29.333 86.221,29.333 85.917 C 29.333 85.587,29.249 85.500,28.928 85.500 C 28.635 85.500,28.508 85.396,28.470 85.125 C 28.417 84.755,24.338 84.517,22.625 84.784 M45.125 84.790 C 44.806 84.836,44.667 84.953,44.667 85.178 C 44.667 85.433,44.549 85.500,44.097 85.500 C 43.334 85.500,43.000 85.646,43.000 85.978 C 43.000 86.130,42.831 86.328,42.625 86.419 C 42.335 86.546,42.238 86.745,42.199 87.292 C 42.158 87.862,42.085 88.000,41.827 88.000 C 41.171 88.000,41.129 90.209,41.783 90.302 C 42.092 90.346,42.157 90.477,42.200 91.135 C 42.242 91.800,42.306 91.925,42.625 91.970 C 42.857 92.003,43.000 92.139,43.000 92.327 C 43.000 92.720,43.320 92.833,44.430 92.833 C 44.927 92.833,45.333 92.908,45.333 93.000 C 45.333 93.103,46.250 93.167,47.750 93.167 C 49.157 93.167,50.167 93.101,50.167 93.009 C 50.167 92.922,50.523 92.829,50.958 92.801 C 51.634 92.757,51.758 92.695,51.803 92.375 C 51.844 92.086,51.966 92.000,52.331 92.000 C 53.177 92.000,53.333 91.856,53.333 91.077 C 53.333 90.457,53.385 90.349,53.708 90.303 C 54.330 90.215,54.378 88.000,53.758 88.000 C 53.360 88.000,53.333 87.948,53.333 87.167 C 53.333 86.454,53.287 86.333,53.012 86.333 C 52.805 86.333,52.671 86.199,52.637 85.958 C 52.591 85.638,52.467 85.576,51.792 85.533 C 51.153 85.492,51.000 85.423,51.000 85.175 C 51.000 85.007,50.894 84.828,50.765 84.779 C 50.504 84.679,45.842 84.688,45.125 84.790 M33.449 85.607 C 33.385 85.670,33.333 85.856,33.333 86.019 C 33.333 86.254,33.170 86.326,32.542 86.366 C 31.866 86.409,31.742 86.472,31.697 86.792 C 31.662 87.035,31.529 87.167,31.316 87.167 C 30.771 87.167,30.910 91.059,31.458 91.137 C 31.691 91.170,31.833 91.305,31.833 91.494 C 31.833 91.842,32.150 92.000,32.847 92.000 C 33.213 92.000,33.333 92.078,33.333 92.316 C 33.333 92.779,33.628 92.833,36.167 92.833 C 38.693 92.833,39.000 92.779,39.000 92.327 C 39.000 92.139,39.143 92.003,39.375 91.970 C 39.616 91.936,39.769 91.783,39.803 91.542 C 39.837 91.301,39.971 91.167,40.178 91.167 C 40.478 91.167,40.500 91.032,40.500 89.167 C 40.500 87.316,40.476 87.167,40.185 87.167 C 39.987 87.167,39.830 87.011,39.765 86.750 C 39.673 86.384,39.570 86.333,38.925 86.333 C 38.290 86.333,38.183 86.283,38.137 85.958 C 38.083 85.580,33.797 85.259,33.449 85.607 " stroke="none" fill="#e29530" fill-rule="evenodd"></path><path id="path2" d="" stroke="none" fill="#d4100c0" fill-rule="evenodd"></path><path id="path3" d="" stroke="none" fill="#d4100c0" fill-rule="evenodd"></path><path id="path4" d="" stroke="none" fill="#d4100c0" fill-rule="evenodd"></path></g></svg>